<?xml version="1.0" encoding="utf-8"?>
<!-- Generator: Adobe Illustrator 19.2.1, SVG Export Plug-In . SVG Version: 6.00 Build 0)  -->
<svg version="1.1" id="Ebene_1" xmlns="http://www.w3.org/2000/svg" xmlns:xlink="http://www.w3.org/1999/xlink" x="0px" y="0px"
	 viewBox="0 0 593.9 130" style="enable-background:new 0 0 593.9 130;" xml:space="preserve">
<style type="text/css">
	.st0{fill:#006560;}
	.st1{fill:#EC6602;}
</style>
<g>
	<path class="st0" d="M3.3,103.3h10c1,0,1.8-0.8,1.8-1.8v-28h22.5c20.6,0,30.2-7.9,30.2-26.7s-9.6-26.7-30.2-26.7H3.3
		c-1,0-1.9,0.8-1.9,1.8v79.6C1.4,102.5,2.2,103.3,3.3,103.3 M34.8,63.1H15.2V30.5h19.6c12,0,18.9,2.9,18.9,16.3
		C53.7,60.1,46.8,63.1,34.8,63.1 M126.7,72.7c0-8.8-1-15.9-4.5-20.9c-4.1-5.9-10.9-9-22.4-9c-22.1,0-27.2,10.8-27.2,31.2
		c0,21.5,7.9,30.8,29.9,30.8c8.3,0,15.9-1.8,20-3.5c0.7-0.3,1.2-0.8,1.2-1.6c0-0.1,0-0.2-0.1-0.7l-1.1-5.1c-0.2-1.1-0.8-1.2-1.5-1.2
		c-0.1,0-0.5,0-0.8,0.1c-4.7,1.3-9.7,2.7-16.1,2.7c-6.8,0-11.4-1-14.5-4.1c-2.7-2.6-4.1-5.7-4.2-11.3h39.2c1.2,0,1.9-1.1,1.9-2.1
		C126.7,76.4,126.7,74.2,126.7,72.7 M113.8,71.4H85.5c0.1-3.7,0.1-7.4,1-10.9c1.5-6.3,5.1-8.6,13.3-8.6c7.5,0,11.3,2.1,12.9,8.8
		C113.7,64,113.8,67.5,113.8,71.4 M188.1,91.5V60.3c0-6-0.6-11.3-6.4-14.5c-3.5-1.9-8.8-3-16.8-3c-11,0-21.1,2.7-24.2,3.7
		c-0.7,0.2-1.5,0.8-1.2,1.9l1.4,6.2c0.2,0.8,0.9,1,1.4,1c0.1,0,0.2,0,0.8-0.1c3.8-0.9,11.6-3.2,19.7-3.2c4.4,0,7.3,0.3,9.2,1.1
		c3.3,1.4,3.5,3.8,3.5,7.2v4.2l-20.5,3.4c-9.9,1.7-18.7,2.9-18.7,17.7c0,18,15.4,18.9,26.7,18.9c6.2,0,11.5-0.7,15.2-1.6
		C185.8,101.4,188.1,99.7,188.1,91.5 M175.3,73.7v20.5c-3.3,1.1-7.5,1.8-12.2,1.8c-6.1,0-14-0.7-14-10.4c0-7.7,4.4-8.3,9-9.1
		L175.3,73.7z M203.9,53.7v48c0,1,0.7,1.7,1.7,1.7h9.5c1,0,1.7-0.7,1.7-1.7V54.7c4.3-1.1,10.2-1.8,17.2-1.8c1.4,0,1.6-0.8,1.6-1.7
		v-6.4c0-1.7-1.2-1.9-2.6-1.9c-9.2,0.1-17.3,1.6-22.2,3.2C205.9,47.6,203.9,49.1,203.9,53.7 M269.4,101.2l-1.1-5.7
		c-0.2-0.9-0.7-1-1.2-1c-1.2,0.1-2.5,0.4-4.2,0.4c-2.3,0-4.7-0.8-4.7-4.8V20.4c0-1-0.6-1.7-1.5-1.7h-0.5l-9.2,1.8
		c-1.1,0.2-1.7,0.7-1.7,1.9v68.4c0,8.8,5,13.5,13.8,13.5c5,0,8.1-0.9,9.3-1.5C269.2,102.7,269.6,101.8,269.4,101.2 M331.7,72.7
		c0-8.8-1-15.9-4.5-20.9c-4.1-5.9-10.9-9-22.4-9c-22.1,0-27.2,10.8-27.2,31.2c0,21.5,7.9,30.8,29.9,30.8c8.3,0,15.9-1.8,20-3.5
		c0.7-0.3,1.2-0.8,1.2-1.6c0-0.1,0-0.2-0.1-0.7l-1.1-5.1c-0.2-1.1-0.8-1.2-1.5-1.2c-0.1,0-0.5,0-0.8,0.1c-4.7,1.3-9.7,2.7-16.1,2.7
		c-6.8,0-11.4-1-14.5-4.1c-2.7-2.6-4.1-5.7-4.2-11.3h39.2c1.2,0,1.9-1.1,1.9-2.1C331.7,76.4,331.7,74.2,331.7,72.7 M318.7,71.4
		h-28.3c0.1-3.7,0.1-7.4,1-10.9c1.5-6.3,5.1-8.6,13.3-8.6c7.5,0,11.3,2.1,12.9,8.8C318.6,64,318.7,67.5,318.7,71.4"/>
	<path class="st0" d="M487,15.9c3.9,0,7-3.1,7-7c0-3.9-3.1-7-7-7c-3.9,0-7,3.1-7,7C480,12.7,483.2,15.9,487,15.9"/>
	<path class="st0" d="M477.4,32.1c3.9,0,7-3.1,7-7c0-3.9-3.1-7-7-7c-3.9,0-7,3.1-7,7C470.3,28.9,473.5,32.1,477.4,32.1"/>
	<path class="st0" d="M496.7,32.1c3.9,0,7-3.1,7-7c0-3.9-3.1-7-7-7c-3.9,0-7,3.1-7,7C489.7,28.9,492.8,32.1,496.7,32.1"/>
	<path class="st0" d="M457.9,36.3c3.9,0,7-3.1,7-7c0-3.9-3.1-7-7-7c-3.9,0-7,3.1-7,7C450.9,33.1,454,36.3,457.9,36.3"/>
	<path class="st0" d="M449.4,54.5c3.9,0,7-3.1,7-7c0-3.9-3.1-7-7-7c-3.9,0-7,3.1-7,7C442.4,51.3,445.6,54.5,449.4,54.5"/>
	<path class="st0" d="M445.6,71.8c3.9,0,7-3.1,7-7c0-3.9-3.1-7-7-7s-7,3.1-7,7C438.6,68.6,441.7,71.8,445.6,71.8"/>
	<path class="st0" d="M464.8,18.5c3.9,0,7-3.1,7-7c0-3.9-3.1-7-7-7c-3.9,0-7,3.1-7,7C457.8,15.3,460.9,18.5,464.8,18.5"/>
	<path class="st0" d="M443.3,24.1c3.9,0,7-3.1,7-7s-3.1-7-7-7c-3.9,0-7,3.1-7,7S439.5,24.1,443.3,24.1"/>
	<path class="st0" d="M421.7,32c3.9,0,7-3.1,7-7c0-3.9-3.1-7-7-7c-3.9,0-7,3.1-7,7C414.7,28.8,417.8,32,421.7,32"/>
	<path class="st0" d="M402.5,40.1c3.1,0,5.6-2.5,5.6-5.6c0-3.1-2.5-5.6-5.6-5.6c-3.1,0-5.6,2.5-5.6,5.6
		C396.9,37.6,399.4,40.1,402.5,40.1"/>
	<path class="st0" d="M417.1,48.3c3.2,0,5.8-2.6,5.8-5.8c0-3.2-2.6-5.8-5.8-5.8c-3.2,0-5.8,2.6-5.8,5.8
		C411.3,45.7,413.9,48.3,417.1,48.3"/>
	<path class="st0" d="M437.4,41.1c3.6,0,6.6-3,6.6-6.6c0-3.6-3-6.6-6.6-6.6c-3.6,0-6.6,3-6.6,6.6C430.8,38.1,433.8,41.1,437.4,41.1"
		/>
	<path class="st0" d="M431.2,56.3c3.5,0,6.3-2.8,6.3-6.3c0-3.5-2.8-6.3-6.3-6.3s-6.3,2.8-6.3,6.3C424.9,53.5,427.7,56.3,431.2,56.3"
		/>
	<path class="st0" d="M385.9,50.9c2.4,0,4.3-1.9,4.3-4.3c0-2.4-1.9-4.3-4.3-4.3c-2.4,0-4.3,1.9-4.3,4.3
		C381.5,49,383.5,50.9,385.9,50.9"/>
	<path class="st0" d="M385.9,69.1c2.4,0,4.3-1.9,4.3-4.3c0-2.4-1.9-4.3-4.3-4.3c-2.4,0-4.3,1.9-4.3,4.3
		C381.5,67.2,383.5,69.1,385.9,69.1"/>
	<path class="st0" d="M401,55c2.6,0,4.7-2.1,4.7-4.7c0-2.6-2.1-4.7-4.7-4.7c-2.6,0-4.7,2.1-4.7,4.7C396.3,52.9,398.4,55,401,55"/>
	<path class="st0" d="M415.1,62.6c2.8,0,5.1-2.3,5.1-5.1c0-2.8-2.3-5.1-5.1-5.1c-2.8,0-5.1,2.3-5.1,5.1
		C410,60.4,412.3,62.6,415.1,62.6"/>
	<path class="st0" d="M415.1,77.1c2.8,0,5.1-2.3,5.1-5.1s-2.3-5.1-5.1-5.1c-2.8,0-5.1,2.3-5.1,5.1S412.3,77.1,415.1,77.1"/>
	<path class="st0" d="M428.8,70.6c3.2,0,5.9-2.6,5.9-5.9c0-3.2-2.6-5.9-5.9-5.9c-3.2,0-5.9,2.6-5.9,5.9
		C422.9,68,425.5,70.6,428.8,70.6"/>
	<path class="st0" d="M400.7,69.4c2.6,0,4.7-2.1,4.7-4.7c0-2.6-2.1-4.7-4.7-4.7c-2.6,0-4.7,2.1-4.7,4.7
		C396.1,67.3,398.2,69.4,400.7,69.4"/>
	<path class="st0" d="M516.2,36.3c-3.9,0-7-3.1-7-7c0-3.9,3.1-7,7-7c3.9,0,7,3.1,7,7C523.2,33.1,520,36.3,516.2,36.3"/>
	<path class="st0" d="M524.6,54.5c-3.9,0-7-3.1-7-7c0-3.9,3.1-7,7-7c3.9,0,7,3.1,7,7C531.7,51.3,528.5,54.5,524.6,54.5"/>
	<path class="st0" d="M528.5,71.8c-3.9,0-7-3.1-7-7c0-3.9,3.1-7,7-7c3.9,0,7,3.1,7,7C535.5,68.6,532.4,71.8,528.5,71.8"/>
	<path class="st0" d="M509.3,18.5c-3.9,0-7-3.1-7-7c0-3.9,3.1-7,7-7c3.9,0,7,3.1,7,7C516.3,15.3,513.1,18.5,509.3,18.5"/>
	<path class="st0" d="M530.7,24.1c-3.9,0-7-3.1-7-7s3.1-7,7-7c3.9,0,7,3.1,7,7S534.6,24.1,530.7,24.1"/>
	<path class="st0" d="M552.4,32c-3.9,0-7-3.1-7-7c0-3.9,3.1-7,7-7c3.9,0,7,3.1,7,7C559.4,28.8,556.3,32,552.4,32"/>
	<path class="st0" d="M571.6,40.1c-3.1,0-5.6-2.5-5.6-5.6c0-3.1,2.5-5.6,5.6-5.6c3.1,0,5.6,2.5,5.6,5.6
		C577.2,37.6,574.7,40.1,571.6,40.1"/>
	<path class="st0" d="M557,48.3c-3.2,0-5.8-2.6-5.8-5.8c0-3.2,2.6-5.8,5.8-5.8c3.2,0,5.8,2.6,5.8,5.8
		C562.8,45.7,560.2,48.3,557,48.3"/>
	<path class="st0" d="M536.7,41.1c-3.6,0-6.6-3-6.6-6.6c0-3.6,3-6.6,6.6-6.6c3.6,0,6.6,3,6.6,6.6C543.3,38.1,540.3,41.1,536.7,41.1"
		/>
	<path class="st0" d="M542.8,56.3c-3.5,0-6.3-2.8-6.3-6.3c0-3.5,2.8-6.3,6.3-6.3c3.5,0,6.3,2.8,6.3,6.3
		C549.2,53.5,546.3,56.3,542.8,56.3"/>
	<path class="st0" d="M588.2,50.9c-2.4,0-4.3-1.9-4.3-4.3c0-2.4,1.9-4.3,4.3-4.3c2.4,0,4.3,1.9,4.3,4.3
		C592.6,49,590.6,50.9,588.2,50.9"/>
	<path class="st0" d="M588.2,69.1c-2.4,0-4.3-1.9-4.3-4.3c0-2.4,1.9-4.3,4.3-4.3c2.4,0,4.3,1.9,4.3,4.3
		C592.6,67.2,590.6,69.1,588.2,69.1"/>
	<path class="st0" d="M573.1,55c-2.6,0-4.7-2.1-4.7-4.7c0-2.6,2.1-4.7,4.7-4.7c2.6,0,4.7,2.1,4.7,4.7C577.7,52.9,575.6,55,573.1,55"
		/>
	<path class="st0" d="M558.9,62.6c-2.8,0-5.1-2.3-5.1-5.1c0-2.8,2.3-5.1,5.1-5.1c2.8,0,5.1,2.3,5.1,5.1
		C564,60.4,561.8,62.6,558.9,62.6"/>
	<path class="st0" d="M558.9,77.1c-2.8,0-5.1-2.3-5.1-5.1s2.3-5.1,5.1-5.1c2.8,0,5.1,2.3,5.1,5.1S561.8,77.1,558.9,77.1"/>
	<path class="st0" d="M545.3,70.6c-3.2,0-5.9-2.6-5.9-5.9c0-3.2,2.6-5.9,5.9-5.9c3.2,0,5.9,2.6,5.9,5.9
		C551.2,68,548.5,70.6,545.3,70.6"/>
	<path class="st0" d="M573.3,69.4c-2.6,0-4.7-2.1-4.7-4.7c0-2.6,2.1-4.7,4.7-4.7c2.6,0,4.7,2.1,4.7,4.7
		C578,67.3,575.9,69.4,573.3,69.4"/>
	<path class="st0" d="M487,113.6c3.9,0,7,3.1,7,7c0,3.9-3.1,7-7,7c-3.9,0-7-3.1-7-7C480,116.8,483.2,113.6,487,113.6"/>
	<path class="st0" d="M449.4,75c3.9,0,7,3.1,7,7c0,3.9-3.1,7-7,7c-3.9,0-7-3.1-7-7C442.4,78.2,445.6,75,449.4,75"/>
	<path class="st0" d="M464.8,111c3.9,0,7,3.1,7,7c0,3.9-3.1,7-7,7c-3.9,0-7-3.1-7-7C457.8,114.2,460.9,111,464.8,111"/>
	<path class="st0" d="M443.3,105.4c3.9,0,7,3.1,7,7c0,3.9-3.1,7-7,7c-3.9,0-7-3.1-7-7C436.3,108.5,439.5,105.4,443.3,105.4"/>
	<path class="st0" d="M421.7,97.5c3.9,0,7,3.1,7,7c0,3.9-3.1,7-7,7c-3.9,0-7-3.1-7-7C414.7,100.7,417.8,97.5,421.7,97.5"/>
	<path class="st0" d="M402.5,89.4c3.1,0,5.6,2.5,5.6,5.6c0,3.1-2.5,5.6-5.6,5.6c-3.1,0-5.6-2.5-5.6-5.6
		C396.9,91.9,399.4,89.4,402.5,89.4"/>
	<path class="st0" d="M431.2,73.2c3.5,0,6.3,2.8,6.3,6.3c0,3.5-2.8,6.3-6.3,6.3s-6.3-2.8-6.3-6.3C424.9,76,427.7,73.2,431.2,73.2"/>
	<path class="st0" d="M385.9,78.6c2.4,0,4.3,1.9,4.3,4.3c0,2.4-1.9,4.3-4.3,4.3c-2.4,0-4.3-1.9-4.3-4.3
		C381.5,80.5,383.5,78.6,385.9,78.6"/>
	<path class="st0" d="M524.6,75c-3.9,0-7,3.1-7,7c0,3.9,3.1,7,7,7c3.9,0,7-3.1,7-7C531.7,78.2,528.5,75,524.6,75"/>
	<path class="st0" d="M509.3,111c-3.9,0-7,3.1-7,7c0,3.9,3.1,7,7,7c3.9,0,7-3.1,7-7C516.3,114.2,513.1,111,509.3,111"/>
	<path class="st0" d="M530.7,105.4c-3.9,0-7,3.1-7,7c0,3.9,3.1,7,7,7c3.9,0,7-3.1,7-7C537.8,108.5,534.6,105.4,530.7,105.4"/>
	<path class="st0" d="M552.4,97.5c-3.9,0-7,3.1-7,7c0,3.9,3.1,7,7,7c3.9,0,7-3.1,7-7C559.4,100.7,556.3,97.5,552.4,97.5"/>
	<path class="st0" d="M571.6,89.4c-3.1,0-5.6,2.5-5.6,5.6c0,3.1,2.5,5.6,5.6,5.6c3.1,0,5.6-2.5,5.6-5.6
		C577.2,91.9,574.7,89.4,571.6,89.4"/>
	<path class="st0" d="M542.8,73.2c-3.5,0-6.3,2.8-6.3,6.3c0,3.5,2.8,6.3,6.3,6.3c3.5,0,6.3-2.8,6.3-6.3
		C549.2,76,546.3,73.2,542.8,73.2"/>
	<path class="st0" d="M588.2,78.6c-2.4,0-4.3,1.9-4.3,4.3c0,2.4,1.9,4.3,4.3,4.3c2.4,0,4.3-1.9,4.3-4.3
		C592.6,80.5,590.6,78.6,588.2,78.6"/>
	<path class="st1" d="M461.8,62.9c3.2,0,5.8-2.6,5.8-5.8c0-3.2-2.6-5.8-5.8-5.8c-3.2,0-5.8,2.6-5.8,5.8
		C456,60.4,458.6,62.9,461.8,62.9"/>
	<path class="st1" d="M461.8,78.1c3.2,0,5.8-2.6,5.8-5.8c0-3.2-2.6-5.8-5.8-5.8c-3.2,0-5.8,2.6-5.8,5.8
		C456,75.5,458.6,78.1,461.8,78.1"/>
	<path class="st1" d="M487,44.6c3.2,0,5.8-2.6,5.8-5.8c0-3.2-2.6-5.8-5.8-5.8c-3.2,0-5.8,2.6-5.8,5.8C481.3,42,483.9,44.6,487,44.6"
		/>
	<path class="st1" d="M471.3,49.6c3.2,0,5.8-2.6,5.8-5.8c0-3.2-2.6-5.8-5.8-5.8c-3.2,0-5.8,2.6-5.8,5.8
		C465.5,47,468.1,49.6,471.3,49.6"/>
	<path class="st1" d="M512.3,62.9c-3.2,0-5.8-2.6-5.8-5.8c0-3.2,2.6-5.8,5.8-5.8c3.2,0,5.8,2.6,5.8,5.8
		C518.1,60.4,515.5,62.9,512.3,62.9"/>
	<path class="st1" d="M512.3,78.1c-3.2,0-5.8-2.6-5.8-5.8c0-3.2,2.6-5.8,5.8-5.8c3.2,0,5.8,2.6,5.8,5.8
		C518.1,75.5,515.5,78.1,512.3,78.1"/>
	<path class="st1" d="M502.8,49.6c-3.2,0-5.8-2.6-5.8-5.8c0-3.2,2.6-5.8,5.8-5.8c3.2,0,5.8,2.6,5.8,5.8
		C508.5,47,506,49.6,502.8,49.6"/>
	<path class="st1" d="M477.4,97.4c3.9,0,7,3.1,7,7c0,3.9-3.1,7-7,7c-3.9,0-7-3.1-7-7C470.3,100.6,473.5,97.4,477.4,97.4"/>
	<path class="st1" d="M496.7,97.4c3.9,0,7,3.1,7,7c0,3.9-3.1,7-7,7c-3.9,0-7-3.1-7-7C489.7,100.6,492.8,97.4,496.7,97.4"/>
	<path class="st1" d="M457.9,93.2c3.9,0,7,3.1,7,7c0,3.9-3.1,7-7,7c-3.9,0-7-3.1-7-7C450.9,96.4,454,93.2,457.9,93.2"/>
	<path class="st1" d="M417.1,81.2c3.2,0,5.8,2.6,5.8,5.8c0,3.2-2.6,5.8-5.8,5.8c-3.2,0-5.8-2.6-5.8-5.8
		C411.3,83.8,413.9,81.2,417.1,81.2"/>
	<path class="st1" d="M437.4,88.4c3.6,0,6.6,3,6.6,6.6c0,3.6-3,6.6-6.6,6.6c-3.6,0-6.6-3-6.6-6.6C430.8,91.4,433.8,88.4,437.4,88.4"
		/>
	<path class="st1" d="M401,74.5c2.6,0,4.7,2.1,4.7,4.7c0,2.6-2.1,4.7-4.7,4.7c-2.6,0-4.7-2.1-4.7-4.7
		C396.3,76.6,398.4,74.5,401,74.5"/>
	<path class="st1" d="M487,84.9c3.2,0,5.8,2.6,5.8,5.8c0,3.2-2.6,5.8-5.8,5.8c-3.2,0-5.8-2.6-5.8-5.8
		C481.3,87.5,483.9,84.9,487,84.9"/>
	<path class="st1" d="M471.3,79.9c3.2,0,5.8,2.6,5.8,5.8c0,3.2-2.6,5.8-5.8,5.8c-3.2,0-5.8-2.6-5.8-5.8
		C465.5,82.5,468.1,79.9,471.3,79.9"/>
	<path class="st1" d="M516.2,93.2c-3.9,0-7,3.1-7,7c0,3.9,3.1,7,7,7c3.9,0,7-3.1,7-7C523.2,96.4,520,93.2,516.2,93.2"/>
	<path class="st1" d="M557,81.2c-3.2,0-5.8,2.6-5.8,5.8c0,3.2,2.6,5.8,5.8,5.8c3.2,0,5.8-2.6,5.8-5.8
		C562.8,83.8,560.2,81.2,557,81.2"/>
	<path class="st1" d="M536.7,88.4c-3.6,0-6.6,3-6.6,6.6c0,3.6,3,6.6,6.6,6.6c3.6,0,6.6-3,6.6-6.6C543.3,91.4,540.3,88.4,536.7,88.4"
		/>
	<path class="st1" d="M573.1,74.5c-2.6,0-4.7,2.1-4.7,4.7c0,2.6,2.1,4.7,4.7,4.7c2.6,0,4.7-2.1,4.7-4.7
		C577.7,76.6,575.6,74.5,573.1,74.5"/>
	<path class="st1" d="M502.8,79.9c-3.2,0-5.8,2.6-5.8,5.8c0,3.2,2.6,5.8,5.8,5.8c3.2,0,5.8-2.6,5.8-5.8
		C508.5,82.5,506,79.9,502.8,79.9"/>
</g>
<g>
</g>
<g>
</g>
<g>
</g>
<g>
</g>
<g>
</g>
<g>
</g>
</svg>
